IKResults
version=1
nRows=24
nColumns=24
inDegrees=yes

Units are S.I. units (second, meters, Newtons, ...)
If the header above contains a line with 'inDegrees', this indicates whether rotational values are in degrees (yes) or radians (no).

endheader
time	pelvis_tilt	pelvis_list	pelvis_rotation	pelvis_tx	pelvis_ty	pelvis_tz	hip_flexion_r	hip_adduction_r	hip_rotation_r	knee_angle_r	ankle_angle_r	subtalar_angle_r	mtp_angle_r	hip_flexion_l	hip_adduction_l	hip_rotation_l	knee_angle_l	ankle_angle_l	subtalar_angle_l	mtp_angle_l	lumbar_extension	lumbar_bending	lumbar_rotation
3.540000	12.880476	1.703951	-178.225698	0.306627	0.618053	-1.199412	66.606206	-31.198880	-16.685872	-90.684439	29.821700	5.179963	0.000000	69.409065	-31.495155	-12.328250	-90.969716	31.825716	17.192279	0.000000	-14.133896	2.249370	1.997514
3.545000	12.860118	1.698639	-178.301103	0.305736	0.624089	-1.199577	65.714720	-30.848579	-17.052175	-89.454956	29.367432	5.077404	0.000000	68.460631	-31.338784	-12.764461	-89.794510	31.374667	17.069151	0.000000	-13.988393	2.233243	2.005643
3.550000	12.845090	1.651305	-178.347736	0.304792	0.630113	-1.199604	64.848845	-30.569733	-17.395329	-88.225641	28.887535	4.958779	0.000000	67.487167	-31.120917	-13.238823	-88.578248	30.935490	16.928842	0.000000	-13.825030	2.190404	1.965533
3.555000	12.832236	1.638860	-178.419243	0.303824	0.636140	-1.199662	63.980678	-30.236759	-17.751006	-86.990544	28.414232	4.838712	0.000000	66.542072	-30.944946	-13.676908	-87.380664	30.460249	16.801431	0.000000	-13.657790	2.174096	1.983669
3.560000	12.736580	1.546777	-178.404526	0.302582	0.642214	-1.199199	63.023753	-30.108638	-18.090924	-85.771725	27.931709	4.822196	0.000000	65.453969	-30.603596	-14.167874	-86.180403	30.026437	16.584226	0.000000	-13.547643	2.127773	1.924641
3.565000	12.795991	1.562180	-178.494704	0.301865	0.648142	-1.199649	62.235651	-29.680501	-18.453079	-84.493324	27.451333	4.668730	0.000000	64.742419	-30.442279	-14.203272	-84.717882	29.028079	16.736470	0.000000	-13.326448	2.088688	1.970037
3.570000	12.793700	1.576810	-178.556736	0.300889	0.654089	-1.199807	61.328464	-29.326949	-18.858391	-83.188667	26.974747	4.593842	0.000000	63.707717	-30.253565	-14.863081	-83.469755	28.806258	16.321921	0.000000	-13.145081	2.084048	1.985086
3.575000	12.807581	1.527896	-178.569180	0.299924	0.660042	-1.199856	60.485025	-29.062094	-19.175297	-81.890949	26.454670	4.588471	0.000000	62.905964	-29.996561	-14.997569	-82.193457	28.002333	16.600339	0.000000	-12.947770	2.030719	1.908447
3.580000	12.784211	1.512950	-178.601076	0.298857	0.665953	-1.199973	59.579992	-28.751574	-19.525066	-80.600882	25.958866	4.567614	0.000000	61.935135	-29.765384	-15.474830	-80.893809	27.510391	16.388224	0.000000	-12.781853	2.002150	1.902585
3.585000	12.751712	1.497645	-178.639480	0.297788	0.671803	-1.200126	58.686542	-28.449321	-19.895674	-79.323983	25.460080	4.503753	0.000000	60.949040	-29.562249	-15.934352	-79.615755	27.066272	16.289904	0.000000	-12.624559	1.965460	1.897000
3.590000	12.715988	1.471574	-178.678903	0.296630	0.677587	-1.200174	57.794988	-28.166806	-20.269746	-78.037151	24.943857	4.415503	0.000000	59.994235	-29.332305	-16.347034	-78.352007	26.536698	16.156009	0.000000	-12.454380	1.925667	1.919733
3.595000	12.694002	1.441161	-178.705953	0.295542	0.683320	-1.200262	56.915944	-27.880317	-20.626904	-76.731927	24.420981	4.350008	0.000000	59.041479	-29.099581	-16.811359	-77.060121	26.005555	16.070031	0.000000	-12.298911	1.887390	1.876252
3.600000	12.684577	1.414594	-178.738549	0.294452	0.689020	-1.200352	56.044419	-27.583623	-20.976528	-75.399896	23.879479	4.320639	0.000000	58.129416	-28.841862	-17.217419	-75.745328	25.418748	15.924195	0.000000	-12.115357	1.853376	1.838188
3.605000	12.662652	1.388244	-178.773727	0.293310	0.694667	-1.200457	55.164444	-27.290040	-21.328676	-74.077354	23.356709	4.314116	0.000000	57.180858	-28.611460	-17.658557	-74.430951	24.880514	15.841222	0.000000	-11.936412	1.805952	1.817018
3.610000	12.608196	1.370331	-178.786560	0.292138	0.700264	-1.200556	54.249479	-27.016703	-21.713348	-72.776865	22.838615	4.319571	0.000000	56.199926	-28.348106	-18.061869	-73.053085	24.447567	15.741641	0.000000	-11.788101	1.767353	1.813272
3.615000	12.463975	1.260502	-178.744795	0.290681	0.705956	-1.200165	53.232412	-26.914791	-22.079392	-71.471744	22.350278	4.392127	0.000000	55.023640	-27.936271	-18.650731	-71.713136	24.071232	15.463345	0.000000	-11.714081	1.685123	1.732201
3.620000	12.481309	1.317138	-178.803393	0.289705	0.711322	-1.200678	52.432329	-26.517981	-22.519976	-70.230180	21.659487	4.186538	0.000000	54.202152	-27.782264	-18.960033	-70.397226	23.460902	15.379509	0.000000	-11.504566	1.657241	1.822663
3.625000	12.464148	1.286133	-178.815881	0.288571	0.716683	-1.200820	51.553282	-26.224460	-22.886371	-68.867186	21.106185	4.155454	0.000000	53.301235	-27.516767	-19.345811	-69.083677	22.832594	15.303122	0.000000	-11.318247	1.608257	1.782511
3.630000	12.448437	1.232268	-178.816135	0.287415	0.722001	-1.200906	50.706527	-25.981007	-23.240152	-67.543573	20.522839	4.119403	0.000000	52.435585	-27.204326	-19.582496	-67.780330	22.161630	15.352204	0.000000	-11.127654	1.553137	1.723066
3.635000	12.418980	1.213437	-178.843811	0.286175	0.727182	-1.201020	49.849970	-25.677801	-23.562767	-66.221277	19.977475	4.135738	0.000000	51.528752	-26.952054	-19.954787	-66.478550	21.561992	15.255023	0.000000	-10.944099	1.522698	1.708637
3.640000	12.403953	1.177505	-178.866451	0.284942	0.732283	-1.201069	49.022617	-25.408257	-23.892482	-64.903311	19.437898	4.178831	0.000000	50.630418	-26.650081	-20.305990	-65.150265	20.972278	15.065524	0.000000	-10.746223	1.463006	1.722919
3.645000	12.359158	1.156162	-178.880564	0.283671	0.737316	-1.201161	48.147088	-25.118846	-24.242472	-63.579909	18.918320	4.193704	0.000000	49.722659	-26.368792	-20.642284	-63.837634	20.387220	14.895805	0.000000	-10.571539	1.424157	1.738554
3.650000	12.313468	1.133216	-178.889878	0.282397	0.742335	-1.201291	47.239968	-24.814834	-24.565021	-62.170147	18.474919	4.336983	0.000000	48.775059	-26.062908	-21.056818	-62.476427	19.729291	14.751083	0.000000	-10.405406	1.381516	1.702025
3.655000	12.304295	1.101712	-178.902653	0.281190	0.747199	-1.201413	46.404467	-24.514338	-24.882395	-60.806250	17.921707	4.382913	0.000000	47.900447	-25.746510	-21.417897	-61.117586	19.205393	14.431428	0.000000	-10.200737	1.330098	1.688440
